<?xml version="1.0" encoding="UTF-8" standalone="no" ?>
<!DOCTYPE svg PUBLIC "-//W3C//DTD SVG 1.1//EN" "http://www.w3.org/Graphics/SVG/1.1/DTD/svg11.dtd">
<svg xmlns="http://www.w3.org/2000/svg" xmlns:xlink="http://www.w3.org/1999/xlink" version="1.1" width="800" height="800" viewBox="0 0 400 400" xml:space="preserve">
<desc>Created with Fabric.js 4.6.0</desc>
<defs>
</defs>
<g transform="matrix(1 0 0 1 199.12 269.29)" id="1eMkPuru5Q3aUrnOHs-Gg"  >
<path style="stroke: none; stroke-width: 1; stroke-dasharray: none; stroke-linecap: butt; stroke-dashoffset: 0; stroke-linejoin: miter; stroke-miterlimit: 4; fill: rgb(164,191,179); fill-rule: nonzero; opacity: 1;" vector-effect="non-scaling-stroke"  transform=" translate(-204.35, -278.19)" d="M 56.7 218.19 L 352 218.19 L 352 338.19 L 56.7 338.19 L 56.7 218.19 Z" stroke-linecap="round" />
</g>
<g transform="matrix(1 0 0 1 314.27 216.51)" style="" id="77PNkxtRT5V1atPb_u1WG"  >
		<text xml:space="preserve" font-family="Open Sans" font-size="14" font-style="normal" font-weight="normal" line-height="1.16" style="stroke: none; stroke-width: 1; stroke-dasharray: none; stroke-linecap: butt; stroke-dashoffset: 0; stroke-linejoin: miter; stroke-miterlimit: 4; fill: rgb(0,0,0); fill-rule: nonzero; opacity: 1; white-space: pre;" ><tspan x="-200" y="4.4" >1 Lunar Month  (29.53 days)</tspan></text>
</g>
<g transform="matrix(1 0 0 1 125.97 323.91)" id="cb6SaybvWS6s_BQ3S1vJo"  >
<path style="stroke: rgb(0,0,0); stroke-width: 1; stroke-dasharray: none; stroke-linecap: butt; stroke-dashoffset: 0; stroke-linejoin: miter; stroke-miterlimit: 4; fill: rgb(0,0,0); fill-opacity: 0; fill-rule: nonzero; opacity: 1;" vector-effect="non-scaling-stroke"  transform=" translate(-131.2, -332.81)" d="M 203.7 347.43 L 119.12 347.43 L 58.7 318.19" stroke-linecap="round" />
</g>
<g transform="matrix(1 0 0 1 270.97 323.91)" id="JIhuUhEmqR9YmV_NMGw-h"  >
<path style="stroke: rgb(0,0,0); stroke-width: 1; stroke-dasharray: none; stroke-linecap: butt; stroke-dashoffset: 0; stroke-linejoin: miter; stroke-miterlimit: 4; fill: rgb(0,0,0); fill-opacity: 0; fill-rule: nonzero; opacity: 1;" vector-effect="non-scaling-stroke"  transform=" translate(-276.2, -332.81)" d="M 203.7 347.43 L 288.28 347.43 L 348.7 318.19" stroke-linecap="round" />
</g>
<g transform="matrix(1 0 0 1 377.97 351.94)" style="" id="1m4s4KlaxrXbgLI-aYxib"  >
		<text xml:space="preserve" font-family="Open Sans" font-size="14" font-style="normal" font-weight="normal" line-height="1.16" style="stroke: none; stroke-width: 1; stroke-dasharray: none; stroke-linecap: butt; stroke-dashoffset: 0; stroke-linejoin: miter; stroke-miterlimit: 4; fill: rgb(0,0,0); fill-rule: nonzero; opacity: 1; white-space: pre;" ><tspan x="-200" y="4.4" >29 days</tspan></text>
</g>
<g transform="matrix(1 0 0 1 198.47 268.98)" id="LqYGPgZjTqXWQ-lFOXlJ1"  >
<path style="stroke: none; stroke-width: 1; stroke-dasharray: none; stroke-linecap: butt; stroke-dashoffset: 0; stroke-linejoin: miter; stroke-miterlimit: 4; fill: rgb(224,219,214); fill-rule: nonzero; opacity: 1;" vector-effect="non-scaling-stroke"  transform=" translate(-203.7, -277.88)" d="M 58.7 237.77 L 348.7 237.77 L 348.7 318 L 58.7 318 L 58.7 237.77 Z" stroke-linecap="round" />
</g>
<g transform="matrix(1 0 0 1 198.47 268.98)" id="mEjJu-bKorpSv8P5EPKnS"  >
<path style="stroke: rgb(0,0,0); stroke-width: 1; stroke-dasharray: none; stroke-linecap: butt; stroke-dashoffset: 0; stroke-linejoin: miter; stroke-miterlimit: 4; fill: rgb(0,0,0); fill-opacity: 0; fill-rule: nonzero; opacity: 1;" vector-effect="non-scaling-stroke"  transform=" translate(-203.7, -277.88)" d="M 58.7 237.77 L 348.7 237.77 L 348.7 318 L 58.7 318 L 58.7 237.77 Z" stroke-linecap="round" />
</g>
<g transform="matrix(1 0 0 1 63.47 268.71)" id="nmjFRro2sha4lqKVMi4I2"  >
<path style="stroke: rgb(0,0,0); stroke-width: 1; stroke-dasharray: none; stroke-linecap: butt; stroke-dashoffset: 0; stroke-linejoin: miter; stroke-miterlimit: 4; fill: rgb(0,0,0); fill-opacity: 0; fill-rule: nonzero; opacity: 1;" vector-effect="non-scaling-stroke"  transform=" translate(-68.7, -277.61)" d="M 68.7 317.6 L 68.7 237.62" stroke-linecap="round" />
</g>
<g transform="matrix(1 0 0 1 73.47 268.79)" id="i8QRIYgfnLffVKDIaEev8"  >
<path style="stroke: rgb(0,0,0); stroke-width: 1; stroke-dasharray: none; stroke-linecap: butt; stroke-dashoffset: 0; stroke-linejoin: miter; stroke-miterlimit: 4; fill: rgb(0,0,0); fill-opacity: 0; fill-rule: nonzero; opacity: 1;" vector-effect="non-scaling-stroke"  transform=" translate(-78.7, -277.69)" d="M 78.7 317.68 L 78.7 264.02 L 78.7 237.7" stroke-linecap="round" />
</g>
<g transform="matrix(1 0 0 1 83.47 268.79)" id="u-dj2o5pzBZTiiuQyxoNS"  >
<path style="stroke: rgb(0,0,0); stroke-width: 1; stroke-dasharray: none; stroke-linecap: butt; stroke-dashoffset: 0; stroke-linejoin: miter; stroke-miterlimit: 4; fill: rgb(0,0,0); fill-opacity: 0; fill-rule: nonzero; opacity: 1;" vector-effect="non-scaling-stroke"  transform=" translate(-88.7, -277.69)" d="M 88.7 317.68 L 88.7 237.7" stroke-linecap="round" />
</g>
<g transform="matrix(1 0 0 1 93.47 268.79)" id="rQ-TJ-fzFs2vTWXV041Zs"  >
<path style="stroke: rgb(0,0,0); stroke-width: 1; stroke-dasharray: none; stroke-linecap: butt; stroke-dashoffset: 0; stroke-linejoin: miter; stroke-miterlimit: 4; fill: rgb(0,0,0); fill-opacity: 0; fill-rule: nonzero; opacity: 1;" vector-effect="non-scaling-stroke"  transform=" translate(-98.7, -277.69)" d="M 98.7 317.68 L 98.7 237.7" stroke-linecap="round" />
</g>
<g transform="matrix(1 0 0 1 103.47 268.79)" id="jIowVllok94AEQJnoyavZ"  >
<path style="stroke: rgb(0,0,0); stroke-width: 1; stroke-dasharray: none; stroke-linecap: butt; stroke-dashoffset: 0; stroke-linejoin: miter; stroke-miterlimit: 4; fill: rgb(0,0,0); fill-opacity: 0; fill-rule: nonzero; opacity: 1;" vector-effect="non-scaling-stroke"  transform=" translate(-108.7, -277.69)" d="M 108.7 317.68 L 108.7 237.7" stroke-linecap="round" />
</g>
<g transform="matrix(1 0 0 1 113.47 268.3)" id="zE05ZVj0RvaxBkI7HkfDd"  >
<path style="stroke: rgb(0,0,0); stroke-width: 1; stroke-dasharray: none; stroke-linecap: butt; stroke-dashoffset: 0; stroke-linejoin: miter; stroke-miterlimit: 4; fill: rgb(0,0,0); fill-opacity: 0; fill-rule: nonzero; opacity: 1;" vector-effect="non-scaling-stroke"  transform=" translate(-118.7, -277.2)" d="M 118.7 317.19 L 118.7 237.21" stroke-linecap="round" />
</g>
<g transform="matrix(1 0 0 1 123.47 268.79)" id="_rq_AkhKZeRRfON9IAWbn"  >
<path style="stroke: rgb(0,0,0); stroke-width: 1; stroke-dasharray: none; stroke-linecap: butt; stroke-dashoffset: 0; stroke-linejoin: miter; stroke-miterlimit: 4; fill: rgb(0,0,0); fill-opacity: 0; fill-rule: nonzero; opacity: 1;" vector-effect="non-scaling-stroke"  transform=" translate(-128.7, -277.69)" d="M 128.7 317.68 L 128.7 237.7" stroke-linecap="round" />
</g>
<g transform="matrix(1 0 0 1 133.47 268.3)" id="TfbzthezDuHnZSzTxwAiH"  >
<path style="stroke: rgb(0,0,0); stroke-width: 1; stroke-dasharray: none; stroke-linecap: butt; stroke-dashoffset: 0; stroke-linejoin: miter; stroke-miterlimit: 4; fill: rgb(0,0,0); fill-opacity: 0; fill-rule: nonzero; opacity: 1;" vector-effect="non-scaling-stroke"  transform=" translate(-138.7, -277.2)" d="M 138.7 317.19 L 138.7 237.21" stroke-linecap="round" />
</g>
<g transform="matrix(1 0 0 1 143.47 268.79)" id="kbuJQR4VOxuqeUsm_HAYm"  >
<path style="stroke: rgb(0,0,0); stroke-width: 1; stroke-dasharray: none; stroke-linecap: butt; stroke-dashoffset: 0; stroke-linejoin: miter; stroke-miterlimit: 4; fill: rgb(0,0,0); fill-opacity: 0; fill-rule: nonzero; opacity: 1;" vector-effect="non-scaling-stroke"  transform=" translate(-148.7, -277.69)" d="M 148.7 317.68 L 148.7 237.7" stroke-linecap="round" />
</g>
<g transform="matrix(1 0 0 1 153.47 268.79)" id="VDWbZa11IWMsxqjIU2gBn"  >
<path style="stroke: rgb(0,0,0); stroke-width: 1; stroke-dasharray: none; stroke-linecap: butt; stroke-dashoffset: 0; stroke-linejoin: miter; stroke-miterlimit: 4; fill: rgb(0,0,0); fill-opacity: 0; fill-rule: nonzero; opacity: 1;" vector-effect="non-scaling-stroke"  transform=" translate(-158.7, -277.69)" d="M 158.7 317.68 L 158.7 237.7" stroke-linecap="round" />
</g>
<g transform="matrix(1 0 0 1 163.47 268.79)" id="TtVYEzul-TgQlHvOAIopG"  >
<path style="stroke: rgb(0,0,0); stroke-width: 1; stroke-dasharray: none; stroke-linecap: butt; stroke-dashoffset: 0; stroke-linejoin: miter; stroke-miterlimit: 4; fill: rgb(0,0,0); fill-opacity: 0; fill-rule: nonzero; opacity: 1;" vector-effect="non-scaling-stroke"  transform=" translate(-168.7, -277.69)" d="M 168.7 317.68 L 168.7 237.7" stroke-linecap="round" />
</g>
<g transform="matrix(1 0 0 1 173.47 269.05)" id="m7ei9upVdvn_8TazNDM-S"  >
<path style="stroke: rgb(0,0,0); stroke-width: 1; stroke-dasharray: none; stroke-linecap: butt; stroke-dashoffset: 0; stroke-linejoin: miter; stroke-miterlimit: 4; fill: rgb(0,0,0); fill-opacity: 0; fill-rule: nonzero; opacity: 1;" vector-effect="non-scaling-stroke"  transform=" translate(-178.7, -277.95)" d="M 178.7 317.94 L 178.7 237.96" stroke-linecap="round" />
</g>
<g transform="matrix(1 0 0 1 183.47 268.71)" id="hVUH4OOKDtUxmjmiO4e42"  >
<path style="stroke: rgb(0,0,0); stroke-width: 1; stroke-dasharray: none; stroke-linecap: butt; stroke-dashoffset: 0; stroke-linejoin: miter; stroke-miterlimit: 4; fill: rgb(0,0,0); fill-opacity: 0; fill-rule: nonzero; opacity: 1;" vector-effect="non-scaling-stroke"  transform=" translate(-188.7, -277.61)" d="M 188.7 317.6 L 188.7 237.62" stroke-linecap="round" />
</g>
<g transform="matrix(1 0 0 1 194.14 268.71)" id="qPr9FwhvnWyLw9UMnfsRr"  >
<path style="stroke: rgb(0,0,0); stroke-width: 1; stroke-dasharray: none; stroke-linecap: butt; stroke-dashoffset: 0; stroke-linejoin: miter; stroke-miterlimit: 4; fill: rgb(0,0,0); fill-opacity: 0; fill-rule: nonzero; opacity: 1;" vector-effect="non-scaling-stroke"  transform=" translate(-199.37, -277.61)" d="M 199.37 317.6 L 199.37 237.62" stroke-linecap="round" />
</g>
<g transform="matrix(1 0 0 1 203.47 268.71)" id="EDLJ7lHtGZiRhbzvMg8HN"  >
<path style="stroke: rgb(0,0,0); stroke-width: 1; stroke-dasharray: none; stroke-linecap: butt; stroke-dashoffset: 0; stroke-linejoin: miter; stroke-miterlimit: 4; fill: rgb(0,0,0); fill-opacity: 0; fill-rule: nonzero; opacity: 1;" vector-effect="non-scaling-stroke"  transform=" translate(-208.7, -277.61)" d="M 208.7 317.6 L 208.7 237.62" stroke-linecap="round" />
</g>
<g transform="matrix(1 0 0 1 213.47 268.36)" id="ePcLPnBKwFWXJn0xR7cz-"  >
<path style="stroke: rgb(0,0,0); stroke-width: 1; stroke-dasharray: none; stroke-linecap: butt; stroke-dashoffset: 0; stroke-linejoin: miter; stroke-miterlimit: 4; fill: rgb(0,0,0); fill-opacity: 0; fill-rule: nonzero; opacity: 1;" vector-effect="non-scaling-stroke"  transform=" translate(-218.7, -277.26)" d="M 218.7 317.25 L 218.7 237.28" stroke-linecap="round" />
</g>
<g transform="matrix(1 0 0 1 223.47 268.54)" id="i_jIHuBi3DVcjjVHnHbt1"  >
<path style="stroke: rgb(0,0,0); stroke-width: 1; stroke-dasharray: none; stroke-linecap: butt; stroke-dashoffset: 0; stroke-linejoin: miter; stroke-miterlimit: 4; fill: rgb(0,0,0); fill-opacity: 0; fill-rule: nonzero; opacity: 1;" vector-effect="non-scaling-stroke"  transform=" translate(-228.7, -277.44)" d="M 228.7 317.42 L 228.7 237.45" stroke-linecap="round" />
</g>
<g transform="matrix(1 0 0 1 233.47 268.71)" id="NsuwCutztYPT7zR7Dq6K7"  >
<path style="stroke: rgb(0,0,0); stroke-width: 1; stroke-dasharray: none; stroke-linecap: butt; stroke-dashoffset: 0; stroke-linejoin: miter; stroke-miterlimit: 4; fill: rgb(0,0,0); fill-opacity: 0; fill-rule: nonzero; opacity: 1;" vector-effect="non-scaling-stroke"  transform=" translate(-238.7, -277.61)" d="M 238.7 317.6 L 238.7 237.62" stroke-linecap="round" />
</g>
<g transform="matrix(1 0 0 1 243.47 268.36)" id="6-1SmJT4mQfS6Hf4k76ZL"  >
<path style="stroke: rgb(0,0,0); stroke-width: 1; stroke-dasharray: none; stroke-linecap: butt; stroke-dashoffset: 0; stroke-linejoin: miter; stroke-miterlimit: 4; fill: rgb(0,0,0); fill-opacity: 0; fill-rule: nonzero; opacity: 1;" vector-effect="non-scaling-stroke"  transform=" translate(-248.7, -277.26)" d="M 248.7 317.25 L 248.7 237.28" stroke-linecap="round" />
</g>
<g transform="matrix(1 0 0 1 253.47 268.79)" id="sdft4TzY3EXlO2rS8Aock"  >
<path style="stroke: rgb(0,0,0); stroke-width: 1; stroke-dasharray: none; stroke-linecap: butt; stroke-dashoffset: 0; stroke-linejoin: miter; stroke-miterlimit: 4; fill: rgb(0,0,0); fill-opacity: 0; fill-rule: nonzero; opacity: 1;" vector-effect="non-scaling-stroke"  transform=" translate(-258.7, -277.69)" d="M 258.7 317.68 L 258.7 237.7" stroke-linecap="round" />
</g>
<g transform="matrix(1 0 0 1 263.47 268.79)" id="TzoTFfP1IjhHkYLY-268s"  >
<path style="stroke: rgb(0,0,0); stroke-width: 1; stroke-dasharray: none; stroke-linecap: butt; stroke-dashoffset: 0; stroke-linejoin: miter; stroke-miterlimit: 4; fill: rgb(0,0,0); fill-opacity: 0; fill-rule: nonzero; opacity: 1;" vector-effect="non-scaling-stroke"  transform=" translate(-268.7, -277.69)" d="M 268.7 317.68 L 268.7 237.7" stroke-linecap="round" />
</g>
<g transform="matrix(1 0 0 1 273.47 268.79)" id="q9cIJEOyYqSJACOs_ihUF"  >
<path style="stroke: rgb(0,0,0); stroke-width: 1; stroke-dasharray: none; stroke-linecap: butt; stroke-dashoffset: 0; stroke-linejoin: miter; stroke-miterlimit: 4; fill: rgb(0,0,0); fill-opacity: 0; fill-rule: nonzero; opacity: 1;" vector-effect="non-scaling-stroke"  transform=" translate(-278.7, -277.69)" d="M 278.7 317.68 L 278.7 237.7" stroke-linecap="round" />
</g>
<g transform="matrix(1 0 0 1 283.47 268.79)" id="3HqmaR6_sjeE3wj6r-9p9"  >
<path style="stroke: rgb(0,0,0); stroke-width: 1; stroke-dasharray: none; stroke-linecap: butt; stroke-dashoffset: 0; stroke-linejoin: miter; stroke-miterlimit: 4; fill: rgb(0,0,0); fill-opacity: 0; fill-rule: nonzero; opacity: 1;" vector-effect="non-scaling-stroke"  transform=" translate(-288.7, -277.69)" d="M 288.7 317.68 L 288.7 237.7" stroke-linecap="round" />
</g>
<g transform="matrix(1 0 0 1 293.47 269.3)" id="rcvgtDGLiFmu1U1oLohmI"  >
<path style="stroke: rgb(0,0,0); stroke-width: 1; stroke-dasharray: none; stroke-linecap: butt; stroke-dashoffset: 0; stroke-linejoin: miter; stroke-miterlimit: 4; fill: rgb(0,0,0); fill-opacity: 0; fill-rule: nonzero; opacity: 1;" vector-effect="non-scaling-stroke"  transform=" translate(-298.7, -278.2)" d="M 298.7 318.19 L 298.7 238.21" stroke-linecap="round" />
</g>
<g transform="matrix(1 0 0 1 303.47 269.3)" id="prSH9oFYnsj-qzmbwTzqJ"  >
<path style="stroke: rgb(0,0,0); stroke-width: 1; stroke-dasharray: none; stroke-linecap: butt; stroke-dashoffset: 0; stroke-linejoin: miter; stroke-miterlimit: 4; fill: rgb(0,0,0); fill-opacity: 0; fill-rule: nonzero; opacity: 1;" vector-effect="non-scaling-stroke"  transform=" translate(-308.7, -278.2)" d="M 308.7 318.19 L 308.7 238.21" stroke-linecap="round" />
</g>
<g transform="matrix(1 0 0 1 313.47 269.3)" id="v1UHE4zmKfKyfs05GT6J4"  >
<path style="stroke: rgb(0,0,0); stroke-width: 1; stroke-dasharray: none; stroke-linecap: butt; stroke-dashoffset: 0; stroke-linejoin: miter; stroke-miterlimit: 4; fill: rgb(0,0,0); fill-opacity: 0; fill-rule: nonzero; opacity: 1;" vector-effect="non-scaling-stroke"  transform=" translate(-318.7, -278.2)" d="M 318.7 318.19 L 318.7 238.21" stroke-linecap="round" />
</g>
<g transform="matrix(1 0 0 1 323.47 268.79)" id="VrWd3od-P23nrJMgbZtiL"  >
<path style="stroke: rgb(0,0,0); stroke-width: 1; stroke-dasharray: none; stroke-linecap: butt; stroke-dashoffset: 0; stroke-linejoin: miter; stroke-miterlimit: 4; fill: rgb(0,0,0); fill-opacity: 0; fill-rule: nonzero; opacity: 1;" vector-effect="non-scaling-stroke"  transform=" translate(-328.7, -277.69)" d="M 328.7 317.68 L 328.7 237.7" stroke-linecap="round" />
</g>
<g transform="matrix(1 0 0 1 333.47 269.3)" id="jm1PUISQJUZ3amNr-Vl-m"  >
<path style="stroke: rgb(0,0,0); stroke-width: 1; stroke-dasharray: none; stroke-linecap: butt; stroke-dashoffset: 0; stroke-linejoin: miter; stroke-miterlimit: 4; fill: rgb(0,0,0); fill-opacity: 0; fill-rule: nonzero; opacity: 1;" vector-effect="non-scaling-stroke"  transform=" translate(-338.7, -278.2)" d="M 338.7 318.19 L 338.7 238.21" stroke-linecap="round" />
</g>
<g transform="matrix(1 0 0 1 199.42 84.98)" id="T-mTXiNBzR_f3OkVFdmka"  >
<path style="stroke: none; stroke-width: 1; stroke-dasharray: none; stroke-linecap: butt; stroke-dashoffset: 0; stroke-linejoin: miter; stroke-miterlimit: 4; fill: rgb(164,191,179); fill-rule: nonzero; opacity: 1;" vector-effect="non-scaling-stroke"  transform=" translate(-204.65, -93.88)" d="M 57 33.88 L 352.3 33.88 L 352.3 153.88 L 57 153.88 L 57 33.88 Z" stroke-linecap="round" />
</g>
<g transform="matrix(1 0 0 1 317.48 32.92)" style="" id="cezxSbRR9x1BxtBZmfFIG"  >
		<text xml:space="preserve" font-family="Open Sans" font-size="14" font-style="normal" font-weight="normal" line-height="1.16" style="stroke: none; stroke-width: 1; stroke-dasharray: none; stroke-linecap: butt; stroke-dashoffset: 0; stroke-linejoin: miter; stroke-miterlimit: 4; fill: rgb(0,0,0); fill-rule: nonzero; opacity: 1; white-space: pre;" ><tspan x="-200" y="4.4" >1 Lunar Month  (29.53 days)</tspan></text>
</g>
<g transform="matrix(1 0 0 1 119.77 139.6)" id="CxRCXtNoaHauESzqYOunj"  >
<path style="stroke: rgb(0,0,0); stroke-width: 1; stroke-dasharray: none; stroke-linecap: butt; stroke-dashoffset: 0; stroke-linejoin: miter; stroke-miterlimit: 4; fill: rgb(0,0,0); fill-opacity: 0; fill-rule: nonzero; opacity: 1;" vector-effect="non-scaling-stroke"  transform=" translate(-125, -148.5)" d="M 200 163.12 L 112.5 163.12 L 50 133.88" stroke-linecap="round" />
</g>
<g transform="matrix(1 0 0 1 269.77 139.6)" id="A92tEJqBMP8sCYkK6xKXc"  >
<path style="stroke: rgb(0,0,0); stroke-width: 1; stroke-dasharray: none; stroke-linecap: butt; stroke-dashoffset: 0; stroke-linejoin: miter; stroke-miterlimit: 4; fill: rgb(0,0,0); fill-opacity: 0; fill-rule: nonzero; opacity: 1;" vector-effect="non-scaling-stroke"  transform=" translate(-275, -148.5)" d="M 200 163.12 L 287.5 163.12 L 350 133.88" stroke-linecap="round" />
</g>
<g transform="matrix(1 0 0 1 363.78 166.63)" style="" id="RoosjeFBd1U130dZ5bpE_"  >
		<text xml:space="preserve" font-family="Open Sans" font-size="14" font-style="normal" font-weight="normal" line-height="1.16" style="stroke: none; stroke-width: 1; stroke-dasharray: none; stroke-linecap: butt; stroke-dashoffset: 0; stroke-linejoin: miter; stroke-miterlimit: 4; fill: rgb(0,0,0); fill-rule: nonzero; opacity: 1; white-space: pre;" ><tspan x="-200" y="4.4" >30 days</tspan></text>
</g>
<g transform="matrix(1 0 0 1 199.77 84.68)" id="oq8qK5KWUcFl52JUSloJz"  >
<path style="stroke: none; stroke-width: 1; stroke-dasharray: none; stroke-linecap: butt; stroke-dashoffset: 0; stroke-linejoin: miter; stroke-miterlimit: 4; fill: rgb(224,219,214); fill-rule: nonzero; opacity: 1;" vector-effect="non-scaling-stroke"  transform=" translate(-205, -93.58)" d="M 60 53.47 L 350 53.47 L 350 133.69 L 60 133.69 L 60 53.47 Z" stroke-linecap="round" />
</g>
<g transform="matrix(1 0 0 1 199.77 84.68)" id="x9-4qLhskpZO-Y26gsfTl"  >
<path style="stroke: rgb(0,0,0); stroke-width: 1; stroke-dasharray: none; stroke-linecap: butt; stroke-dashoffset: 0; stroke-linejoin: miter; stroke-miterlimit: 4; fill: rgb(0,0,0); fill-opacity: 0; fill-rule: nonzero; opacity: 1;" vector-effect="non-scaling-stroke"  transform=" translate(-205, -93.58)" d="M 60 53.47 L 350 53.47 L 350 133.69 L 60 133.69 L 60 53.47 Z" stroke-linecap="round" />
</g>
<g transform="matrix(1 0 0 1 64.77 84.4)" id="Jf2DsKGK2kkCR67ORpHT9"  >
<path style="stroke: rgb(0,0,0); stroke-width: 1; stroke-dasharray: none; stroke-linecap: butt; stroke-dashoffset: 0; stroke-linejoin: miter; stroke-miterlimit: 4; fill: rgb(0,0,0); fill-opacity: 0; fill-rule: nonzero; opacity: 1;" vector-effect="non-scaling-stroke"  transform=" translate(-70, -93.3)" d="M 70 133.29 L 70 53.31" stroke-linecap="round" />
</g>
<g transform="matrix(1 0 0 1 74.77 84.48)" id="GzhVPVjS12AKaAeOMkGfQ"  >
<path style="stroke: rgb(0,0,0); stroke-width: 1; stroke-dasharray: none; stroke-linecap: butt; stroke-dashoffset: 0; stroke-linejoin: miter; stroke-miterlimit: 4; fill: rgb(0,0,0); fill-opacity: 0; fill-rule: nonzero; opacity: 1;" vector-effect="non-scaling-stroke"  transform=" translate(-80, -93.38)" d="M 80 133.37 L 80 79.72 L 80 53.39" stroke-linecap="round" />
</g>
<g transform="matrix(1 0 0 1 84.77 84.48)" id="Tah84A-TkdNERvlLNHvnl"  >
<path style="stroke: rgb(0,0,0); stroke-width: 1; stroke-dasharray: none; stroke-linecap: butt; stroke-dashoffset: 0; stroke-linejoin: miter; stroke-miterlimit: 4; fill: rgb(0,0,0); fill-opacity: 0; fill-rule: nonzero; opacity: 1;" vector-effect="non-scaling-stroke"  transform=" translate(-90, -93.38)" d="M 90 133.37 L 90 53.39" stroke-linecap="round" />
</g>
<g transform="matrix(1 0 0 1 94.77 84.48)" id="wwc2ZEHH_E68zcD-h90Yp"  >
<path style="stroke: rgb(0,0,0); stroke-width: 1; stroke-dasharray: none; stroke-linecap: butt; stroke-dashoffset: 0; stroke-linejoin: miter; stroke-miterlimit: 4; fill: rgb(0,0,0); fill-opacity: 0; fill-rule: nonzero; opacity: 1;" vector-effect="non-scaling-stroke"  transform=" translate(-100, -93.38)" d="M 100 133.37 L 100 53.39" stroke-linecap="round" />
</g>
<g transform="matrix(1 0 0 1 104.77 84.48)" id="QSb1oAKHdWkRN8w0Q2FK1"  >
<path style="stroke: rgb(0,0,0); stroke-width: 1; stroke-dasharray: none; stroke-linecap: butt; stroke-dashoffset: 0; stroke-linejoin: miter; stroke-miterlimit: 4; fill: rgb(0,0,0); fill-opacity: 0; fill-rule: nonzero; opacity: 1;" vector-effect="non-scaling-stroke"  transform=" translate(-110, -93.38)" d="M 110 133.37 L 110 53.39" stroke-linecap="round" />
</g>
<g transform="matrix(1 0 0 1 114.77 83.99)" id="t9Wn2eAexOG3GOwCOCgSy"  >
<path style="stroke: rgb(0,0,0); stroke-width: 1; stroke-dasharray: none; stroke-linecap: butt; stroke-dashoffset: 0; stroke-linejoin: miter; stroke-miterlimit: 4; fill: rgb(0,0,0); fill-opacity: 0; fill-rule: nonzero; opacity: 1;" vector-effect="non-scaling-stroke"  transform=" translate(-120, -92.89)" d="M 120 132.88 L 120 52.9" stroke-linecap="round" />
</g>
<g transform="matrix(1 0 0 1 124.77 84.48)" id="Q1GPkUGiQnWdjZFUnng_2"  >
<path style="stroke: rgb(0,0,0); stroke-width: 1; stroke-dasharray: none; stroke-linecap: butt; stroke-dashoffset: 0; stroke-linejoin: miter; stroke-miterlimit: 4; fill: rgb(0,0,0); fill-opacity: 0; fill-rule: nonzero; opacity: 1;" vector-effect="non-scaling-stroke"  transform=" translate(-130, -93.38)" d="M 130 133.37 L 130 53.39" stroke-linecap="round" />
</g>
<g transform="matrix(1 0 0 1 134.77 83.99)" id="UAgOHiIYNrmLTxrgZDigb"  >
<path style="stroke: rgb(0,0,0); stroke-width: 1; stroke-dasharray: none; stroke-linecap: butt; stroke-dashoffset: 0; stroke-linejoin: miter; stroke-miterlimit: 4; fill: rgb(0,0,0); fill-opacity: 0; fill-rule: nonzero; opacity: 1;" vector-effect="non-scaling-stroke"  transform=" translate(-140, -92.89)" d="M 140 132.88 L 140 52.9" stroke-linecap="round" />
</g>
<g transform="matrix(1 0 0 1 144.77 84.48)" id="T582ogZrIgTsyb2T-JZIv"  >
<path style="stroke: rgb(0,0,0); stroke-width: 1; stroke-dasharray: none; stroke-linecap: butt; stroke-dashoffset: 0; stroke-linejoin: miter; stroke-miterlimit: 4; fill: rgb(0,0,0); fill-opacity: 0; fill-rule: nonzero; opacity: 1;" vector-effect="non-scaling-stroke"  transform=" translate(-150, -93.38)" d="M 150 133.37 L 150 53.39" stroke-linecap="round" />
</g>
<g transform="matrix(1 0 0 1 154.77 84.48)" id="70rlQSphFJvWoqDlN-GHM"  >
<path style="stroke: rgb(0,0,0); stroke-width: 1; stroke-dasharray: none; stroke-linecap: butt; stroke-dashoffset: 0; stroke-linejoin: miter; stroke-miterlimit: 4; fill: rgb(0,0,0); fill-opacity: 0; fill-rule: nonzero; opacity: 1;" vector-effect="non-scaling-stroke"  transform=" translate(-160, -93.38)" d="M 160 133.37 L 160 53.39" stroke-linecap="round" />
</g>
<g transform="matrix(1 0 0 1 164.77 84.48)" id="0YqUqSBKM1BLQsn1tG1wd"  >
<path style="stroke: rgb(0,0,0); stroke-width: 1; stroke-dasharray: none; stroke-linecap: butt; stroke-dashoffset: 0; stroke-linejoin: miter; stroke-miterlimit: 4; fill: rgb(0,0,0); fill-opacity: 0; fill-rule: nonzero; opacity: 1;" vector-effect="non-scaling-stroke"  transform=" translate(-170, -93.38)" d="M 170 133.37 L 170 53.39" stroke-linecap="round" />
</g>
<g transform="matrix(1 0 0 1 174.77 84.74)" id="ucWMTbm_lmHcgcgQjRSYu"  >
<path style="stroke: rgb(0,0,0); stroke-width: 1; stroke-dasharray: none; stroke-linecap: butt; stroke-dashoffset: 0; stroke-linejoin: miter; stroke-miterlimit: 4; fill: rgb(0,0,0); fill-opacity: 0; fill-rule: nonzero; opacity: 1;" vector-effect="non-scaling-stroke"  transform=" translate(-180, -93.64)" d="M 180 133.63 L 180 53.66" stroke-linecap="round" />
</g>
<g transform="matrix(1 0 0 1 184.77 84.4)" id="BNc0l-U4qJOeDZaVJQ_Nx"  >
<path style="stroke: rgb(0,0,0); stroke-width: 1; stroke-dasharray: none; stroke-linecap: butt; stroke-dashoffset: 0; stroke-linejoin: miter; stroke-miterlimit: 4; fill: rgb(0,0,0); fill-opacity: 0; fill-rule: nonzero; opacity: 1;" vector-effect="non-scaling-stroke"  transform=" translate(-190, -93.3)" d="M 190 133.29 L 190 53.31" stroke-linecap="round" />
</g>
<g transform="matrix(1 0 0 1 195.44 84.4)" id="Fp2JMoh15QRRWeddX_rqC"  >
<path style="stroke: rgb(0,0,0); stroke-width: 1; stroke-dasharray: none; stroke-linecap: butt; stroke-dashoffset: 0; stroke-linejoin: miter; stroke-miterlimit: 4; fill: rgb(0,0,0); fill-opacity: 0; fill-rule: nonzero; opacity: 1;" vector-effect="non-scaling-stroke"  transform=" translate(-200.67, -93.3)" d="M 200.67 133.29 L 200.67 53.31" stroke-linecap="round" />
</g>
<g transform="matrix(1 0 0 1 204.77 84.4)" id="dPm74VDcN9pu8CSnnqfCl"  >
<path style="stroke: rgb(0,0,0); stroke-width: 1; stroke-dasharray: none; stroke-linecap: butt; stroke-dashoffset: 0; stroke-linejoin: miter; stroke-miterlimit: 4; fill: rgb(0,0,0); fill-opacity: 0; fill-rule: nonzero; opacity: 1;" vector-effect="non-scaling-stroke"  transform=" translate(-210, -93.3)" d="M 210 133.29 L 210 53.31" stroke-linecap="round" />
</g>
<g transform="matrix(1 0 0 1 214.77 84.06)" id="tZ3LJTSstr9lXp9u0OFRG"  >
<path style="stroke: rgb(0,0,0); stroke-width: 1; stroke-dasharray: none; stroke-linecap: butt; stroke-dashoffset: 0; stroke-linejoin: miter; stroke-miterlimit: 4; fill: rgb(0,0,0); fill-opacity: 0; fill-rule: nonzero; opacity: 1;" vector-effect="non-scaling-stroke"  transform=" translate(-220, -92.96)" d="M 220 132.95 L 220 52.97" stroke-linecap="round" />
</g>
<g transform="matrix(1 0 0 1 224.77 84.23)" id="uiyqKmfbhBXMAxNvgXqt1"  >
<path style="stroke: rgb(0,0,0); stroke-width: 1; stroke-dasharray: none; stroke-linecap: butt; stroke-dashoffset: 0; stroke-linejoin: miter; stroke-miterlimit: 4; fill: rgb(0,0,0); fill-opacity: 0; fill-rule: nonzero; opacity: 1;" vector-effect="non-scaling-stroke"  transform=" translate(-230, -93.13)" d="M 230 133.12 L 230 53.14" stroke-linecap="round" />
</g>
<g transform="matrix(1 0 0 1 234.77 84.4)" id="ujALPD4PMoKZzjLZ8FQ-O"  >
<path style="stroke: rgb(0,0,0); stroke-width: 1; stroke-dasharray: none; stroke-linecap: butt; stroke-dashoffset: 0; stroke-linejoin: miter; stroke-miterlimit: 4; fill: rgb(0,0,0); fill-opacity: 0; fill-rule: nonzero; opacity: 1;" vector-effect="non-scaling-stroke"  transform=" translate(-240, -93.3)" d="M 240 133.29 L 240 53.31" stroke-linecap="round" />
</g>
<g transform="matrix(1 0 0 1 244.77 84.06)" id="0R3efdGgCPvEBrDJ1OJds"  >
<path style="stroke: rgb(0,0,0); stroke-width: 1; stroke-dasharray: none; stroke-linecap: butt; stroke-dashoffset: 0; stroke-linejoin: miter; stroke-miterlimit: 4; fill: rgb(0,0,0); fill-opacity: 0; fill-rule: nonzero; opacity: 1;" vector-effect="non-scaling-stroke"  transform=" translate(-250, -92.96)" d="M 250 132.95 L 250 52.97" stroke-linecap="round" />
</g>
<g transform="matrix(1 0 0 1 254.77 84.48)" id="8C_GoUMvFuS4L3bxMqveO"  >
<path style="stroke: rgb(0,0,0); stroke-width: 1; stroke-dasharray: none; stroke-linecap: butt; stroke-dashoffset: 0; stroke-linejoin: miter; stroke-miterlimit: 4; fill: rgb(0,0,0); fill-opacity: 0; fill-rule: nonzero; opacity: 1;" vector-effect="non-scaling-stroke"  transform=" translate(-260, -93.38)" d="M 260 133.37 L 260 53.39" stroke-linecap="round" />
</g>
<g transform="matrix(1 0 0 1 264.77 84.48)" id="gVn50vDZPKco10qnMDhhv"  >
<path style="stroke: rgb(0,0,0); stroke-width: 1; stroke-dasharray: none; stroke-linecap: butt; stroke-dashoffset: 0; stroke-linejoin: miter; stroke-miterlimit: 4; fill: rgb(0,0,0); fill-opacity: 0; fill-rule: nonzero; opacity: 1;" vector-effect="non-scaling-stroke"  transform=" translate(-270, -93.38)" d="M 270 133.37 L 270 53.39" stroke-linecap="round" />
</g>
<g transform="matrix(1 0 0 1 274.77 84.48)" id="JgzYe_4BwMMCXfinGcfAb"  >
<path style="stroke: rgb(0,0,0); stroke-width: 1; stroke-dasharray: none; stroke-linecap: butt; stroke-dashoffset: 0; stroke-linejoin: miter; stroke-miterlimit: 4; fill: rgb(0,0,0); fill-opacity: 0; fill-rule: nonzero; opacity: 1;" vector-effect="non-scaling-stroke"  transform=" translate(-280, -93.38)" d="M 280 133.37 L 280 53.39" stroke-linecap="round" />
</g>
<g transform="matrix(1 0 0 1 284.77 84.48)" id="ePxroZbyiQQytmiPq1LNF"  >
<path style="stroke: rgb(0,0,0); stroke-width: 1; stroke-dasharray: none; stroke-linecap: butt; stroke-dashoffset: 0; stroke-linejoin: miter; stroke-miterlimit: 4; fill: rgb(0,0,0); fill-opacity: 0; fill-rule: nonzero; opacity: 1;" vector-effect="non-scaling-stroke"  transform=" translate(-290, -93.38)" d="M 290 133.37 L 290 53.39" stroke-linecap="round" />
</g>
<g transform="matrix(1 0 0 1 294.77 84.99)" id="zJXb8KbAfGAcgYz7IB_6a"  >
<path style="stroke: rgb(0,0,0); stroke-width: 1; stroke-dasharray: none; stroke-linecap: butt; stroke-dashoffset: 0; stroke-linejoin: miter; stroke-miterlimit: 4; fill: rgb(0,0,0); fill-opacity: 0; fill-rule: nonzero; opacity: 1;" vector-effect="non-scaling-stroke"  transform=" translate(-300, -93.89)" d="M 300 133.88 L 300 53.91" stroke-linecap="round" />
</g>
<g transform="matrix(1 0 0 1 304.77 84.99)" id="lDE2Cxr1ZWWQBgTDCWKU7"  >
<path style="stroke: rgb(0,0,0); stroke-width: 1; stroke-dasharray: none; stroke-linecap: butt; stroke-dashoffset: 0; stroke-linejoin: miter; stroke-miterlimit: 4; fill: rgb(0,0,0); fill-opacity: 0; fill-rule: nonzero; opacity: 1;" vector-effect="non-scaling-stroke"  transform=" translate(-310, -93.89)" d="M 310 133.88 L 310 53.91" stroke-linecap="round" />
</g>
<g transform="matrix(1 0 0 1 314.77 84.99)" id="GC-Ny6rUhL7lMAPBRj_8C"  >
<path style="stroke: rgb(0,0,0); stroke-width: 1; stroke-dasharray: none; stroke-linecap: butt; stroke-dashoffset: 0; stroke-linejoin: miter; stroke-miterlimit: 4; fill: rgb(0,0,0); fill-opacity: 0; fill-rule: nonzero; opacity: 1;" vector-effect="non-scaling-stroke"  transform=" translate(-320, -93.89)" d="M 320 133.88 L 320 53.91" stroke-linecap="round" />
</g>
<g transform="matrix(1 0 0 1 324.77 84.48)" id="7HBmXpYCxW5LkgJKDBbW8"  >
<path style="stroke: rgb(0,0,0); stroke-width: 1; stroke-dasharray: none; stroke-linecap: butt; stroke-dashoffset: 0; stroke-linejoin: miter; stroke-miterlimit: 4; fill: rgb(0,0,0); fill-opacity: 0; fill-rule: nonzero; opacity: 1;" vector-effect="non-scaling-stroke"  transform=" translate(-330, -93.38)" d="M 330 133.37 L 330 53.39" stroke-linecap="round" />
</g>
<g transform="matrix(1 0 0 1 334.77 84.99)" id="Qg2ioxoTGydjjKKKVxn-r"  >
<path style="stroke: rgb(0,0,0); stroke-width: 1; stroke-dasharray: none; stroke-linecap: butt; stroke-dashoffset: 0; stroke-linejoin: miter; stroke-miterlimit: 4; fill: rgb(0,0,0); fill-opacity: 0; fill-rule: nonzero; opacity: 1;" vector-effect="non-scaling-stroke"  transform=" translate(-340, -93.89)" d="M 340 133.88 L 340 53.91" stroke-linecap="round" />
</g>
<g transform="matrix(1 0 0 1 49.77 84.44)" id="UyfiRnhSVanaz_F6zpGCD"  >
<path style="stroke: none; stroke-width: 1; stroke-dasharray: none; stroke-linecap: butt; stroke-dashoffset: 0; stroke-linejoin: miter; stroke-miterlimit: 4; fill: rgb(224,219,214); fill-rule: nonzero; opacity: 1;" vector-effect="non-scaling-stroke"  transform=" translate(-55, -93.34)" d="M 50 53.3 L 60 53.3 L 60 133.38 L 50 133.38 L 50 53.3 Z" stroke-linecap="round" />
</g>
<g transform="matrix(1 0 0 1 49.77 84.44)" id="hwPH_3Df8Y1Zk6qKy5RiR"  >
<path style="stroke: rgb(0,0,0); stroke-width: 1; stroke-dasharray: none; stroke-linecap: butt; stroke-dashoffset: 0; stroke-linejoin: miter; stroke-miterlimit: 4; fill: rgb(0,0,0); fill-opacity: 0; fill-rule: nonzero; opacity: 1;" vector-effect="non-scaling-stroke"  transform=" translate(-55, -93.34)" d="M 50 53.3 L 60 53.3 L 60 133.38 L 50 133.38 L 50 53.3 Z" stroke-linecap="round" />
</g>
</svg>