<?xml version="1.0" encoding="UTF-8" standalone="no"?>
<svg
   version="1.1"
   width="800"
   height="400"
   viewBox="0 0 400 200"
   xml:space="preserve"
   id="svg106"
   sodipodi:docname="2.svg"
   inkscape:version="1.1.1 (3bf5ae0d25, 2021-09-20)"
   inkscape:export-filename="C:\Users\cac.FETTES2000\source\repos\SolarLunarDate\docs\assets\images\2-1200.png"
   inkscape:export-xdpi="144"
   inkscape:export-ydpi="144"
   xmlns:inkscape="http://www.inkscape.org/namespaces/inkscape"
   xmlns:sodipodi="http://sodipodi.sourceforge.net/DTD/sodipodi-0.dtd"
   xmlns="http://www.w3.org/2000/svg"
   xmlns:svg="http://www.w3.org/2000/svg"><sodipodi:namedview
   id="namedview108"
   pagecolor="#ffffff"
   bordercolor="#666666"
   borderopacity="1.0"
   inkscape:pageshadow="2"
   inkscape:pageopacity="0.0"
   inkscape:pagecheckerboard="0"
   showgrid="false"
   inkscape:zoom="0.68875"
   inkscape:cx="455.89837"
   inkscape:cy="111.79673"
   inkscape:window-width="1368"
   inkscape:window-height="850"
   inkscape:window-x="-6"
   inkscape:window-y="-6"
   inkscape:window-maximized="1"
   inkscape:current-layer="D7HrdhOVC9sgPhZlTa_EL" />
<desc
   id="desc2">Created with Fabric.js 4.6.0</desc>
<defs
   id="defs4">
</defs>
<g
   transform="matrix(1 0 0 1 189.19 87.49)"
   id="544kQTQJ0wCxNHuANfSDK">
<path
   style="stroke: none; stroke-width: 1; stroke-dasharray: none; stroke-linecap: butt; stroke-dashoffset: 0; stroke-linejoin: miter; stroke-miterlimit: 4; fill: rgb(164,191,179); fill-rule: nonzero; opacity: 1;"
   vector-effect="non-scaling-stroke"
   transform=" translate(-191.88, -79.25)"
   d="M 9.26 19.25 L 374.51 19.25 L 374.51 139.25 L 9.26 139.25 L 9.26 19.25 Z"
   stroke-linecap="round"
   id="path6" />
</g>
<g
   transform="matrix(1 0 0 1 21.34 87.49)"
   id="zWBJQEu0ozMHZ8zfIjvdj">
<path
   style="stroke: none; stroke-width: 1; stroke-dasharray: none; stroke-linecap: butt; stroke-dashoffset: 0; stroke-linejoin: miter; stroke-miterlimit: 4; fill: rgb(224,219,214); fill-rule: nonzero; opacity: 1;"
   vector-effect="non-scaling-stroke"
   transform=" translate(-24.02, -79.25)"
   d="M 9.26 39.25 L 38.79 39.25 L 38.79 119.25 L 9.26 119.25 L 9.26 39.25 Z"
   stroke-linecap="round"
   id="path9" />
</g>
<g
   transform="matrix(1 0 0 1 21.34 87.49)"
   id="cP5EgHRc3myMjBojsrGbB">
<path
   style="stroke: rgb(0,0,0); stroke-width: 1; stroke-dasharray: none; stroke-linecap: butt; stroke-dashoffset: 0; stroke-linejoin: miter; stroke-miterlimit: 4; fill: rgb(0,0,0); fill-opacity: 0; fill-rule: nonzero; opacity: 1;"
   vector-effect="non-scaling-stroke"
   transform=" translate(-24.02, -79.25)"
   d="M 9.26 39.25 L 38.79 39.25 L 38.79 119.25 L 9.26 119.25 L 9.26 39.25 Z"
   stroke-linecap="round"
   id="path12" />
</g>
<g
   transform="matrix(1 0 0 1 51.34 87.49)"
   id="z2iYdz-0P_LooSXBCXLdQ">
<path
   style="stroke: none; stroke-width: 1; stroke-dasharray: none; stroke-linecap: butt; stroke-dashoffset: 0; stroke-linejoin: miter; stroke-miterlimit: 4; fill: rgb(224,219,214); fill-rule: nonzero; opacity: 1;"
   vector-effect="non-scaling-stroke"
   transform=" translate(-54.03, -79.25)"
   d="M 39.26 39.25 L 68.79 39.25 L 68.79 119.25 L 39.26 119.25 L 39.26 39.25 Z"
   stroke-linecap="round"
   id="path15" />
</g>
<g
   transform="matrix(1 0 0 1 51.34 87.49)"
   id="DQXWOdlvL0ahWGARwAQld">
<path
   style="stroke: rgb(0,0,0); stroke-width: 1; stroke-dasharray: none; stroke-linecap: butt; stroke-dashoffset: 0; stroke-linejoin: miter; stroke-miterlimit: 4; fill: rgb(0,0,0); fill-opacity: 0; fill-rule: nonzero; opacity: 1;"
   vector-effect="non-scaling-stroke"
   transform=" translate(-54.03, -79.25)"
   d="M 39.26 39.25 L 68.79 39.25 L 68.79 119.25 L 39.26 119.25 L 39.26 39.25 Z"
   stroke-linecap="round"
   id="path18" />
</g>
<g
   transform="matrix(1 0 0 1 80.87 87.49)"
   id="tsE69DaLNNzo3mAQ-THhO">
<path
   style="stroke: none; stroke-width: 1; stroke-dasharray: none; stroke-linecap: butt; stroke-dashoffset: 0; stroke-linejoin: miter; stroke-miterlimit: 4; fill: rgb(224,219,214); fill-rule: nonzero; opacity: 1;"
   vector-effect="non-scaling-stroke"
   transform=" translate(-83.56, -79.25)"
   d="M 68.79 39.25 L 98.32 39.25 L 98.32 119.25 L 68.79 119.25 L 68.79 39.25 Z"
   stroke-linecap="round"
   id="path21" />
</g>
<g
   transform="matrix(1 0 0 1 80.87 87.49)"
   id="1a3DLAAIcW2oTGIdHQVoQ">
<path
   style="stroke: rgb(0,0,0); stroke-width: 1; stroke-dasharray: none; stroke-linecap: butt; stroke-dashoffset: 0; stroke-linejoin: miter; stroke-miterlimit: 4; fill: rgb(0,0,0); fill-opacity: 0; fill-rule: nonzero; opacity: 1;"
   vector-effect="non-scaling-stroke"
   transform=" translate(-83.56, -79.25)"
   d="M 68.79 39.25 L 98.32 39.25 L 98.32 119.25 L 68.79 119.25 L 68.79 39.25 Z"
   stroke-linecap="round"
   id="path24" />
</g>
<g
   transform="matrix(1 0 0 1 110.39 87.49)"
   id="2K18XmcN761I94Gp7KO6t">
<path
   style="stroke: none; stroke-width: 1; stroke-dasharray: none; stroke-linecap: butt; stroke-dashoffset: 0; stroke-linejoin: miter; stroke-miterlimit: 4; fill: rgb(224,219,214); fill-rule: nonzero; opacity: 1;"
   vector-effect="non-scaling-stroke"
   transform=" translate(-113.08, -79.25)"
   d="M 98.32 39.25 L 127.85 39.25 L 127.85 119.25 L 98.32 119.25 L 98.32 39.25 Z"
   stroke-linecap="round"
   id="path27" />
</g>
<g
   transform="matrix(1 0 0 1 110.39 87.49)"
   id="wUdPECbQCVGo6NLWIectt">
<path
   style="stroke: rgb(0,0,0); stroke-width: 1; stroke-dasharray: none; stroke-linecap: butt; stroke-dashoffset: 0; stroke-linejoin: miter; stroke-miterlimit: 4; fill: rgb(0,0,0); fill-opacity: 0; fill-rule: nonzero; opacity: 1;"
   vector-effect="non-scaling-stroke"
   transform=" translate(-113.08, -79.25)"
   d="M 98.32 39.25 L 127.85 39.25 L 127.85 119.25 L 98.32 119.25 L 98.32 39.25 Z"
   stroke-linecap="round"
   id="path30" />
</g>
<g
   transform="matrix(1 0 0 1 139.93 87.49)"
   id="VCFk4zf-sqcPSjcE5OtBt">
<path
   style="stroke: none; stroke-width: 1; stroke-dasharray: none; stroke-linecap: butt; stroke-dashoffset: 0; stroke-linejoin: miter; stroke-miterlimit: 4; fill: rgb(224,219,214); fill-rule: nonzero; opacity: 1;"
   vector-effect="non-scaling-stroke"
   transform=" translate(-142.62, -79.25)"
   d="M 127.85 39.25 L 157.38 39.25 L 157.38 119.25 L 127.85 119.25 L 127.85 39.25 Z"
   stroke-linecap="round"
   id="path33" />
</g>
<g
   transform="matrix(1 0 0 1 139.93 87.49)"
   id="DQwIBlsjeHYSYPUQ6L1vE">
<path
   style="stroke: rgb(0,0,0); stroke-width: 1; stroke-dasharray: none; stroke-linecap: butt; stroke-dashoffset: 0; stroke-linejoin: miter; stroke-miterlimit: 4; fill: rgb(0,0,0); fill-opacity: 0; fill-rule: nonzero; opacity: 1;"
   vector-effect="non-scaling-stroke"
   transform=" translate(-142.62, -79.25)"
   d="M 127.85 39.25 L 157.38 39.25 L 157.38 119.25 L 127.85 119.25 L 127.85 39.25 Z"
   stroke-linecap="round"
   id="path36" />
</g>
<g
   transform="matrix(1 0 0 1 169.45 87.49)"
   id="9siZagRVLlVM83bwLHw0e">
<path
   style="stroke: none; stroke-width: 1; stroke-dasharray: none; stroke-linecap: butt; stroke-dashoffset: 0; stroke-linejoin: miter; stroke-miterlimit: 4; fill: rgb(224,219,214); fill-rule: nonzero; opacity: 1;"
   vector-effect="non-scaling-stroke"
   transform=" translate(-172.14, -79.25)"
   d="M 157.38 39.25 L 186.91 39.25 L 186.91 119.25 L 157.38 119.25 L 157.38 39.25 Z"
   stroke-linecap="round"
   id="path39" />
</g>
<g
   transform="matrix(1 0 0 1 169.45 87.49)"
   id="x5pbv9fx-ovOoDwLNn5ow">
<path
   style="stroke: rgb(0,0,0); stroke-width: 1; stroke-dasharray: none; stroke-linecap: butt; stroke-dashoffset: 0; stroke-linejoin: miter; stroke-miterlimit: 4; fill: rgb(0,0,0); fill-opacity: 0; fill-rule: nonzero; opacity: 1;"
   vector-effect="non-scaling-stroke"
   transform=" translate(-172.14, -79.25)"
   d="M 157.38 39.25 L 186.91 39.25 L 186.91 119.25 L 157.38 119.25 L 157.38 39.25 Z"
   stroke-linecap="round"
   id="path42" />
</g>
<g
   transform="matrix(1 0 0 1 198.99 87.49)"
   id="Y4az6_oM3_TkMDsTPbQEJ">
<path
   style="stroke: none; stroke-width: 1; stroke-dasharray: none; stroke-linecap: butt; stroke-dashoffset: 0; stroke-linejoin: miter; stroke-miterlimit: 4; fill: rgb(224,219,214); fill-rule: nonzero; opacity: 1;"
   vector-effect="non-scaling-stroke"
   transform=" translate(-201.68, -79.25)"
   d="M 186.91 39.25 L 216.44 39.25 L 216.44 119.25 L 186.91 119.25 L 186.91 39.25 Z"
   stroke-linecap="round"
   id="path45" />
</g>
<g
   transform="matrix(1 0 0 1 198.99 87.49)"
   id="5DJ1n08SEAAoAwKf1GPCd">
<path
   style="stroke: rgb(0,0,0); stroke-width: 1; stroke-dasharray: none; stroke-linecap: butt; stroke-dashoffset: 0; stroke-linejoin: miter; stroke-miterlimit: 4; fill: rgb(0,0,0); fill-opacity: 0; fill-rule: nonzero; opacity: 1;"
   vector-effect="non-scaling-stroke"
   transform=" translate(-201.68, -79.25)"
   d="M 186.91 39.25 L 216.44 39.25 L 216.44 119.25 L 186.91 119.25 L 186.91 39.25 Z"
   stroke-linecap="round"
   id="path48" />
</g>
<g
   transform="matrix(1 0 0 1 228.51 87.49)"
   id="UpLewBIt7EmG3ZvZHcMDe">
<path
   style="stroke: none; stroke-width: 1; stroke-dasharray: none; stroke-linecap: butt; stroke-dashoffset: 0; stroke-linejoin: miter; stroke-miterlimit: 4; fill: rgb(224,219,214); fill-rule: nonzero; opacity: 1;"
   vector-effect="non-scaling-stroke"
   transform=" translate(-231.2, -79.25)"
   d="M 216.44 39.25 L 245.97 39.25 L 245.97 119.25 L 216.44 119.25 L 216.44 39.25 Z"
   stroke-linecap="round"
   id="path51" />
</g>
<g
   transform="matrix(1 0 0 1 228.51 87.49)"
   id="ZR_eA9x4Sz99qiy8Y0g6O">
<path
   style="stroke: rgb(0,0,0); stroke-width: 1; stroke-dasharray: none; stroke-linecap: butt; stroke-dashoffset: 0; stroke-linejoin: miter; stroke-miterlimit: 4; fill: rgb(0,0,0); fill-opacity: 0; fill-rule: nonzero; opacity: 1;"
   vector-effect="non-scaling-stroke"
   transform=" translate(-231.2, -79.25)"
   d="M 216.44 39.25 L 245.97 39.25 L 245.97 119.25 L 216.44 119.25 L 216.44 39.25 Z"
   stroke-linecap="round"
   id="path54" />
</g>
<g
   transform="matrix(1 0 0 1 258.05 87.49)"
   id="ahfmhkkHo6ygsckxZIafV">
<path
   style="stroke: none; stroke-width: 1; stroke-dasharray: none; stroke-linecap: butt; stroke-dashoffset: 0; stroke-linejoin: miter; stroke-miterlimit: 4; fill: rgb(224,219,214); fill-rule: nonzero; opacity: 1;"
   vector-effect="non-scaling-stroke"
   transform=" translate(-260.74, -79.25)"
   d="M 245.97 39.25 L 275.5 39.25 L 275.5 119.25 L 245.97 119.25 L 245.97 39.25 Z"
   stroke-linecap="round"
   id="path57" />
</g>
<g
   transform="matrix(1 0 0 1 258.05 87.49)"
   id="a03_uFx6SQ_iPC9U7Z5Fu">
<path
   style="stroke: rgb(0,0,0); stroke-width: 1; stroke-dasharray: none; stroke-linecap: butt; stroke-dashoffset: 0; stroke-linejoin: miter; stroke-miterlimit: 4; fill: rgb(0,0,0); fill-opacity: 0; fill-rule: nonzero; opacity: 1;"
   vector-effect="non-scaling-stroke"
   transform=" translate(-260.74, -79.25)"
   d="M 245.97 39.25 L 275.5 39.25 L 275.5 119.25 L 245.97 119.25 L 245.97 39.25 Z"
   stroke-linecap="round"
   id="path60" />
</g>
<g
   transform="matrix(1 0 0 1 287.57 87.49)"
   id="R4uNg7qTPedjll0nL6GfK">
<path
   style="stroke: none; stroke-width: 1; stroke-dasharray: none; stroke-linecap: butt; stroke-dashoffset: 0; stroke-linejoin: miter; stroke-miterlimit: 4; fill: rgb(224,219,214); fill-rule: nonzero; opacity: 1;"
   vector-effect="non-scaling-stroke"
   transform=" translate(-290.26, -79.25)"
   d="M 275.5 39.25 L 305.03 39.25 L 305.03 119.25 L 275.5 119.25 L 275.5 39.25 Z"
   stroke-linecap="round"
   id="path63" />
</g>
<g
   transform="matrix(1 0 0 1 287.57 87.49)"
   id="A6PjF5AHRZxPHoiLAwcJa">
<path
   style="stroke: rgb(0,0,0); stroke-width: 1; stroke-dasharray: none; stroke-linecap: butt; stroke-dashoffset: 0; stroke-linejoin: miter; stroke-miterlimit: 4; fill: rgb(0,0,0); fill-opacity: 0; fill-rule: nonzero; opacity: 1;"
   vector-effect="non-scaling-stroke"
   transform=" translate(-290.26, -79.25)"
   d="M 275.5 39.25 L 305.03 39.25 L 305.03 119.25 L 275.5 119.25 L 275.5 39.25 Z"
   stroke-linecap="round"
   id="path66" />
</g>
<g
   transform="matrix(1 0 0 1 360.9 87.49)"
   id="qxz9FdfzRBiuyoGFaJWPE">
<path
   style="stroke: rgb(0,0,0); stroke-width: 1; stroke-dasharray: none; stroke-linecap: butt; stroke-dashoffset: 0; stroke-linejoin: miter; stroke-miterlimit: 4; fill: rgb(0,0,0); fill-opacity: 0; fill-rule: nonzero; opacity: 1;"
   vector-effect="non-scaling-stroke"
   transform=" translate(-363.59, -79.25)"
   d="M 334.56 39.25 L 392.62 39.25 L 392.62 119.25 L 334.56 119.25 L 334.56 39.25 Z"
   stroke-linecap="round"
   id="path69" />
</g>
<g
   transform="matrix(1 0 0 1 317.1 87.49)"
   id="PPMNCDnxaX2u1MbDgebSX">
<path
   style="stroke: none; stroke-width: 1; stroke-dasharray: none; stroke-linecap: butt; stroke-dashoffset: 0; stroke-linejoin: miter; stroke-miterlimit: 4; fill: rgb(224,219,214); fill-rule: nonzero; opacity: 1;"
   vector-effect="non-scaling-stroke"
   transform=" translate(-319.79, -79.25)"
   d="M 305.03 39.25 L 334.56 39.25 L 334.56 119.25 L 305.03 119.25 L 305.03 39.25 Z"
   stroke-linecap="round"
   id="path72" />
</g>
<g
   transform="matrix(1 0 0 1 317.1 87.49)"
   id="8zDbLvqdMk6P-FwOSwPcs">
<path
   style="stroke: rgb(0,0,0); stroke-width: 1; stroke-dasharray: none; stroke-linecap: butt; stroke-dashoffset: 0; stroke-linejoin: miter; stroke-miterlimit: 4; fill: rgb(0,0,0); fill-opacity: 0; fill-rule: nonzero; opacity: 1;"
   vector-effect="non-scaling-stroke"
   transform=" translate(-319.79, -79.25)"
   d="M 305.03 39.25 L 334.56 39.25 L 334.56 119.25 L 305.03 119.25 L 305.03 39.25 Z"
   stroke-linecap="round"
   id="path75" />
</g>
<g
   transform="matrix(1 0 0 1 346.63 87.49)"
   id="R98-BIF7vof2pfAghvYBO">
<path
   style="stroke: none; stroke-width: 1; stroke-dasharray: none; stroke-linecap: butt; stroke-dashoffset: 0; stroke-linejoin: miter; stroke-miterlimit: 4; fill: rgb(224,219,214); fill-rule: nonzero; opacity: 1;"
   vector-effect="non-scaling-stroke"
   transform=" translate(-349.32, -79.25)"
   d="M 334.56 39.25 L 364.09 39.25 L 364.09 119.25 L 334.56 119.25 L 334.56 39.25 Z"
   stroke-linecap="round"
   id="path78" />
</g>
<g
   transform="matrix(1 0 0 1 346.63 87.49)"
   id="sCZQfcgZ34f6u2GrFfVhU">
<path
   style="stroke: rgb(0,0,0); stroke-width: 1; stroke-dasharray: none; stroke-linecap: butt; stroke-dashoffset: 0; stroke-linejoin: miter; stroke-miterlimit: 4; fill: rgb(0,0,0); fill-opacity: 0; fill-rule: nonzero; opacity: 1;"
   vector-effect="non-scaling-stroke"
   transform=" translate(-349.32, -79.25)"
   d="M 334.56 39.25 L 364.09 39.25 L 364.09 119.25 L 334.56 119.25 L 334.56 39.25 Z"
   stroke-linecap="round"
   id="path81" />
</g>
<g
   transform="matrix(1 0 0 1 304.9 34.14)"
   style=""
   id="VpHpgXaGBYqlRkGGnN6In">
		<text
   xml:space="preserve"
   font-family="'Open Sans'"
   font-size="14px"
   font-style="normal"
   font-weight="normal"
   line-height="1.16"
   style="font-style:normal;font-weight:normal;font-size:14px;line-height:1.16;font-family:'Open Sans';white-space:pre;opacity:1;fill:#000000;fill-rule:nonzero;stroke:none;stroke-width:1;stroke-linecap:butt;stroke-linejoin:miter;stroke-miterlimit:4;stroke-dasharray:none;stroke-dashoffset:0"
   id="text86"
   y="2"><tspan
     x="-200"
     y="6.4000001"
     id="tspan84"
     style="font-style:normal;font-variant:normal;font-weight:normal;font-stretch:normal;font-size:14px;font-family:'Segoe UI';-inkscape-font-specification:'Segoe UI, Normal';font-variant-ligatures:normal;font-variant-caps:normal;font-variant-numeric:normal;font-variant-east-asian:normal">1 Solar Year (365.25 days)</tspan></text>
</g>
<g
   transform="matrix(1 0 0 1 95.16 142.85)"
   id="ZM6PdrWVv0wWzSjKECu9x">
<path
   style="stroke: rgb(0,0,0); stroke-width: 1; stroke-dasharray: none; stroke-linecap: butt; stroke-dashoffset: 0; stroke-linejoin: miter; stroke-miterlimit: 4; fill: rgb(0,0,0); fill-opacity: 0; fill-rule: nonzero; opacity: 1;"
   vector-effect="non-scaling-stroke"
   transform=" translate(-97.85, -134.6)"
   d="M 186.44 149.88 L 83.09 149.88 L 9.26 119.33"
   stroke-linecap="round"
   id="path89" />
</g>
<g
   transform="matrix(1 0 0 1 272.34 142.85)"
   id="D7HrdhOVC9sgPhZlTa_EL">
<path
   style="stroke: rgb(0,0,0); stroke-width: 1; stroke-dasharray: none; stroke-linecap: butt; stroke-dashoffset: 0; stroke-linejoin: miter; stroke-miterlimit: 4; fill: rgb(0,0,0); fill-opacity: 0; fill-rule: nonzero; opacity: 1;"
   vector-effect="non-scaling-stroke"
   transform=" translate(-275.03, -134.6)"
   d="M 186.44 149.88 L 289.8 149.88 L 363.62 119.33"
   stroke-linecap="round"
   id="path92" />
</g>
<g
   transform="translate(196.25,174.02)"
   id="oOxXIkjIoOlUV6my2l61T">
		<text
   xml:space="preserve"
   font-family="'Open Sans'"
   font-size="14px"
   font-style="normal"
   font-weight="normal"
   line-height="1.16"
   style="font-style:normal;font-weight:normal;font-size:14px;line-height:1.16;font-family:'Open Sans';white-space:pre;opacity:1;fill:#000000;fill-rule:nonzero;stroke:none;stroke-width:1;stroke-linecap:butt;stroke-linejoin:miter;stroke-miterlimit:4;stroke-dasharray:none;stroke-dashoffset:0"
   id="text97"><tspan
     x="-156.33"
     y="4.4000001"
     id="tspan95"
     style="font-style:normal;font-variant:normal;font-weight:normal;font-stretch:normal;font-size:14px;font-family:'Segoe UI';-inkscape-font-specification:'Segoe UI, Normal';font-variant-ligatures:normal;font-variant-caps:normal;font-variant-numeric:normal;font-variant-east-asian:normal">12 Lunar Months(12 × 29.53 days) = 354.36 days</tspan></text>
</g>
<g
   transform="matrix(1 0 0 1 -2.69 8.24)"
   id="sETpX2YZ2CrcU8sV1o8DC">
<path
   style="stroke: rgb(0,0,0); stroke-width: 1; stroke-dasharray: none; stroke-linecap: butt; stroke-dashoffset: 0; stroke-linejoin: miter; stroke-miterlimit: 4; fill: rgb(0,0,0); fill-opacity: 0; fill-rule: nonzero; opacity: 1;"
   vector-effect="non-scaling-stroke"
   transform=" translate(0, 0)"
   d=""
   stroke-linecap="round"
   id="path100" />
</g>
<g
   transform="matrix(1 0 0 1 337.73 142.74)"
   id="CEI6GscmJdwbI2UXOTCUk">
<path
   style="stroke: rgb(0,0,0); stroke-width: 1; stroke-dasharray: none; stroke-linecap: butt; stroke-dashoffset: 0; stroke-linejoin: miter; stroke-miterlimit: 4; fill: rgb(0,0,0); fill-opacity: 0; fill-rule: nonzero; opacity: 1;"
   vector-effect="non-scaling-stroke"
   transform=" translate(-340.42, -134.5)"
   d="M 391.59 119.25 L 289.26 149.75"
   stroke-linecap="round"
   id="path103" />
</g>
</svg>
