<?xml version="1.0" encoding="UTF-8" standalone="no" ?>
<!DOCTYPE svg PUBLIC "-//W3C//DTD SVG 1.1//EN" "http://www.w3.org/Graphics/SVG/1.1/DTD/svg11.dtd">
<svg xmlns="http://www.w3.org/2000/svg" xmlns:xlink="http://www.w3.org/1999/xlink" version="1.1" width="800" height="400" viewBox="0 0 400 200" xml:space="preserve">
<desc>Created with Fabric.js 4.6.0</desc>
<defs>
</defs>
<g transform="matrix(1 0 0 1 191.8 80.45)" id="3gVOe1meQL-SNNiJNGGJd"  >
<path style="stroke: none; stroke-width: 1; stroke-dasharray: none; stroke-linecap: butt; stroke-dashoffset: 0; stroke-linejoin: miter; stroke-miterlimit: 4; fill: rgb(164,191,179); fill-rule: nonzero; opacity: 1;" vector-effect="non-scaling-stroke"  transform=" translate(-197.97, -79.52)" d="M 15.34 19.52 L 380.59 19.52 L 380.59 139.52 L 15.34 139.52 L 15.34 19.52 Z" stroke-linecap="round" />
</g>
<g transform="matrix(1 0 0 1 24.93 80.45)" id="27jXXeQ5Mp9NowmwtuR6T"  >
<path style="stroke: none; stroke-width: 1; stroke-dasharray: none; stroke-linecap: butt; stroke-dashoffset: 0; stroke-linejoin: miter; stroke-miterlimit: 4; fill: rgb(224,219,214); fill-rule: nonzero; opacity: 1;" vector-effect="non-scaling-stroke"  transform=" translate(-31.1, -79.52)" d="M 16.34 39.52 L 45.87 39.52 L 45.87 119.52 L 16.34 119.52 L 16.34 39.52 Z" stroke-linecap="round" />
</g>
<g transform="matrix(1 0 0 1 24.93 80.45)" id="rhcO8vnU0tPiPUCEJjHh5"  >
<path style="stroke: rgb(0,0,0); stroke-width: 1; stroke-dasharray: none; stroke-linecap: butt; stroke-dashoffset: 0; stroke-linejoin: miter; stroke-miterlimit: 4; fill: rgb(0,0,0); fill-opacity: 0; fill-rule: nonzero; opacity: 1;" vector-effect="non-scaling-stroke"  transform=" translate(-31.1, -79.52)" d="M 16.34 39.52 L 45.87 39.52 L 45.87 119.52 L 16.34 119.52 L 16.34 39.52 Z" stroke-linecap="round" />
</g>
<g transform="matrix(1 0 0 1 54.94 80.45)" id="zBAjOk0xZliSsUOHcuWaH"  >
<path style="stroke: none; stroke-width: 1; stroke-dasharray: none; stroke-linecap: butt; stroke-dashoffset: 0; stroke-linejoin: miter; stroke-miterlimit: 4; fill: rgb(224,219,214); fill-rule: nonzero; opacity: 1;" vector-effect="non-scaling-stroke"  transform=" translate(-61.11, -79.52)" d="M 46.34 39.52 L 75.87 39.52 L 75.87 119.52 L 46.34 119.52 L 46.34 39.52 Z" stroke-linecap="round" />
</g>
<g transform="matrix(1 0 0 1 54.94 80.45)" id="S2ZCW8km6f1xpv5mIYzVQ"  >
<path style="stroke: rgb(0,0,0); stroke-width: 1; stroke-dasharray: none; stroke-linecap: butt; stroke-dashoffset: 0; stroke-linejoin: miter; stroke-miterlimit: 4; fill: rgb(0,0,0); fill-opacity: 0; fill-rule: nonzero; opacity: 1;" vector-effect="non-scaling-stroke"  transform=" translate(-61.11, -79.52)" d="M 46.34 39.52 L 75.87 39.52 L 75.87 119.52 L 46.34 119.52 L 46.34 39.52 Z" stroke-linecap="round" />
</g>
<g transform="matrix(1 0 0 1 84.46 80.45)" id="nVT12EfWLB2kmaq6wYbKr"  >
<path style="stroke: none; stroke-width: 1; stroke-dasharray: none; stroke-linecap: butt; stroke-dashoffset: 0; stroke-linejoin: miter; stroke-miterlimit: 4; fill: rgb(224,219,214); fill-rule: nonzero; opacity: 1;" vector-effect="non-scaling-stroke"  transform=" translate(-90.64, -79.52)" d="M 75.87 39.52 L 105.4 39.52 L 105.4 119.52 L 75.87 119.52 L 75.87 39.52 Z" stroke-linecap="round" />
</g>
<g transform="matrix(1 0 0 1 84.46 80.45)" id="pRq_wNuy9LuTxOFjqUCES"  >
<path style="stroke: rgb(0,0,0); stroke-width: 1; stroke-dasharray: none; stroke-linecap: butt; stroke-dashoffset: 0; stroke-linejoin: miter; stroke-miterlimit: 4; fill: rgb(0,0,0); fill-opacity: 0; fill-rule: nonzero; opacity: 1;" vector-effect="non-scaling-stroke"  transform=" translate(-90.64, -79.52)" d="M 75.87 39.52 L 105.4 39.52 L 105.4 119.52 L 75.87 119.52 L 75.87 39.52 Z" stroke-linecap="round" />
</g>
<g transform="matrix(1 0 0 1 114 80.45)" id="NfsROvhckl7EtBno4JQgB"  >
<path style="stroke: none; stroke-width: 1; stroke-dasharray: none; stroke-linecap: butt; stroke-dashoffset: 0; stroke-linejoin: miter; stroke-miterlimit: 4; fill: rgb(224,219,214); fill-rule: nonzero; opacity: 1;" vector-effect="non-scaling-stroke"  transform=" translate(-120.17, -79.52)" d="M 105.4 39.52 L 134.93 39.52 L 134.93 119.52 L 105.4 119.52 L 105.4 39.52 Z" stroke-linecap="round" />
</g>
<g transform="matrix(1 0 0 1 114 80.45)" id="HP00Z609i1vScTIKYLwCk"  >
<path style="stroke: rgb(0,0,0); stroke-width: 1; stroke-dasharray: none; stroke-linecap: butt; stroke-dashoffset: 0; stroke-linejoin: miter; stroke-miterlimit: 4; fill: rgb(0,0,0); fill-opacity: 0; fill-rule: nonzero; opacity: 1;" vector-effect="non-scaling-stroke"  transform=" translate(-120.17, -79.52)" d="M 105.4 39.52 L 134.93 39.52 L 134.93 119.52 L 105.4 119.52 L 105.4 39.52 Z" stroke-linecap="round" />
</g>
<g transform="matrix(1 0 0 1 143.52 80.45)" id="lKQG0HZQGXCPyQdd8WkM3"  >
<path style="stroke: none; stroke-width: 1; stroke-dasharray: none; stroke-linecap: butt; stroke-dashoffset: 0; stroke-linejoin: miter; stroke-miterlimit: 4; fill: rgb(224,219,214); fill-rule: nonzero; opacity: 1;" vector-effect="non-scaling-stroke"  transform=" translate(-149.69, -79.52)" d="M 134.93 39.52 L 164.46 39.52 L 164.46 119.52 L 134.93 119.52 L 134.93 39.52 Z" stroke-linecap="round" />
</g>
<g transform="matrix(1 0 0 1 143.52 80.45)" id="cjq0Kz3mS3m-FMUSXa-13"  >
<path style="stroke: rgb(0,0,0); stroke-width: 1; stroke-dasharray: none; stroke-linecap: butt; stroke-dashoffset: 0; stroke-linejoin: miter; stroke-miterlimit: 4; fill: rgb(0,0,0); fill-opacity: 0; fill-rule: nonzero; opacity: 1;" vector-effect="non-scaling-stroke"  transform=" translate(-149.69, -79.52)" d="M 134.93 39.52 L 164.46 39.52 L 164.46 119.52 L 134.93 119.52 L 134.93 39.52 Z" stroke-linecap="round" />
</g>
<g transform="matrix(1 0 0 1 173.06 80.45)" id="AZH9vPYyUf8W5zxWMLM1Q"  >
<path style="stroke: none; stroke-width: 1; stroke-dasharray: none; stroke-linecap: butt; stroke-dashoffset: 0; stroke-linejoin: miter; stroke-miterlimit: 4; fill: rgb(224,219,214); fill-rule: nonzero; opacity: 1;" vector-effect="non-scaling-stroke"  transform=" translate(-179.23, -79.52)" d="M 164.46 39.52 L 193.99 39.52 L 193.99 119.52 L 164.46 119.52 L 164.46 39.52 Z" stroke-linecap="round" />
</g>
<g transform="matrix(1 0 0 1 173.06 80.45)" id="yZxfmnDvIyHhX-wKSuy1V"  >
<path style="stroke: rgb(0,0,0); stroke-width: 1; stroke-dasharray: none; stroke-linecap: butt; stroke-dashoffset: 0; stroke-linejoin: miter; stroke-miterlimit: 4; fill: rgb(0,0,0); fill-opacity: 0; fill-rule: nonzero; opacity: 1;" vector-effect="non-scaling-stroke"  transform=" translate(-179.23, -79.52)" d="M 164.46 39.52 L 193.99 39.52 L 193.99 119.52 L 164.46 119.52 L 164.46 39.52 Z" stroke-linecap="round" />
</g>
<g transform="matrix(1 0 0 1 202.58 80.45)" id="PgFpjFUcOtfr_52bg1e-L"  >
<path style="stroke: none; stroke-width: 1; stroke-dasharray: none; stroke-linecap: butt; stroke-dashoffset: 0; stroke-linejoin: miter; stroke-miterlimit: 4; fill: rgb(224,219,214); fill-rule: nonzero; opacity: 1;" vector-effect="non-scaling-stroke"  transform=" translate(-208.75, -79.52)" d="M 193.99 39.52 L 223.52 39.52 L 223.52 119.52 L 193.99 119.52 L 193.99 39.52 Z" stroke-linecap="round" />
</g>
<g transform="matrix(1 0 0 1 202.58 80.45)" id="PXMfjHaKARy0QeYkWfXz9"  >
<path style="stroke: rgb(0,0,0); stroke-width: 1; stroke-dasharray: none; stroke-linecap: butt; stroke-dashoffset: 0; stroke-linejoin: miter; stroke-miterlimit: 4; fill: rgb(0,0,0); fill-opacity: 0; fill-rule: nonzero; opacity: 1;" vector-effect="non-scaling-stroke"  transform=" translate(-208.75, -79.52)" d="M 193.99 39.52 L 223.52 39.52 L 223.52 119.52 L 193.99 119.52 L 193.99 39.52 Z" stroke-linecap="round" />
</g>
<g transform="matrix(1 0 0 1 232.12 80.45)" id="8fsiyco-tlXgeXA0E2UyW"  >
<path style="stroke: none; stroke-width: 1; stroke-dasharray: none; stroke-linecap: butt; stroke-dashoffset: 0; stroke-linejoin: miter; stroke-miterlimit: 4; fill: rgb(224,219,214); fill-rule: nonzero; opacity: 1;" vector-effect="non-scaling-stroke"  transform=" translate(-238.29, -79.52)" d="M 223.52 39.52 L 253.05 39.52 L 253.05 119.52 L 223.52 119.52 L 223.52 39.52 Z" stroke-linecap="round" />
</g>
<g transform="matrix(1 0 0 1 232.12 80.45)" id="IDmEBj4gFCBpx2tD_2rkF"  >
<path style="stroke: rgb(0,0,0); stroke-width: 1; stroke-dasharray: none; stroke-linecap: butt; stroke-dashoffset: 0; stroke-linejoin: miter; stroke-miterlimit: 4; fill: rgb(0,0,0); fill-opacity: 0; fill-rule: nonzero; opacity: 1;" vector-effect="non-scaling-stroke"  transform=" translate(-238.29, -79.52)" d="M 223.52 39.52 L 253.05 39.52 L 253.05 119.52 L 223.52 119.52 L 223.52 39.52 Z" stroke-linecap="round" />
</g>
<g transform="matrix(1 0 0 1 261.64 80.45)" id="eZIl7wzxmo8rRD2PfwYNq"  >
<path style="stroke: none; stroke-width: 1; stroke-dasharray: none; stroke-linecap: butt; stroke-dashoffset: 0; stroke-linejoin: miter; stroke-miterlimit: 4; fill: rgb(224,219,214); fill-rule: nonzero; opacity: 1;" vector-effect="non-scaling-stroke"  transform=" translate(-267.81, -79.52)" d="M 253.05 39.52 L 282.58 39.52 L 282.58 119.52 L 253.05 119.52 L 253.05 39.52 Z" stroke-linecap="round" />
</g>
<g transform="matrix(1 0 0 1 261.64 80.45)" id="E4FwvjUwH_aBF94uTVWW0"  >
<path style="stroke: rgb(0,0,0); stroke-width: 1; stroke-dasharray: none; stroke-linecap: butt; stroke-dashoffset: 0; stroke-linejoin: miter; stroke-miterlimit: 4; fill: rgb(0,0,0); fill-opacity: 0; fill-rule: nonzero; opacity: 1;" vector-effect="non-scaling-stroke"  transform=" translate(-267.81, -79.52)" d="M 253.05 39.52 L 282.58 39.52 L 282.58 119.52 L 253.05 119.52 L 253.05 39.52 Z" stroke-linecap="round" />
</g>
<g transform="matrix(1 0 0 1 291.18 80.45)" id="y76HEBnpiQh9fcY2ezBT7"  >
<path style="stroke: none; stroke-width: 1; stroke-dasharray: none; stroke-linecap: butt; stroke-dashoffset: 0; stroke-linejoin: miter; stroke-miterlimit: 4; fill: rgb(224,219,214); fill-rule: nonzero; opacity: 1;" vector-effect="non-scaling-stroke"  transform=" translate(-297.35, -79.52)" d="M 282.58 39.52 L 312.11 39.52 L 312.11 119.52 L 282.58 119.52 L 282.58 39.52 Z" stroke-linecap="round" />
</g>
<g transform="matrix(1 0 0 1 291.18 80.45)" id="ANhAkgA1-00Y34hCCnpvB"  >
<path style="stroke: rgb(0,0,0); stroke-width: 1; stroke-dasharray: none; stroke-linecap: butt; stroke-dashoffset: 0; stroke-linejoin: miter; stroke-miterlimit: 4; fill: rgb(0,0,0); fill-opacity: 0; fill-rule: nonzero; opacity: 1;" vector-effect="non-scaling-stroke"  transform=" translate(-297.35, -79.52)" d="M 282.58 39.52 L 312.11 39.52 L 312.11 119.52 L 282.58 119.52 L 282.58 39.52 Z" stroke-linecap="round" />
</g>
<g transform="matrix(1 0 0 1 364.5 80.45)" id="nV6rDaUCFOgQwdoc7jxUY"  >
<path style="stroke: rgb(0,0,0); stroke-width: 1; stroke-dasharray: none; stroke-linecap: butt; stroke-dashoffset: 0; stroke-linejoin: miter; stroke-miterlimit: 4; fill: rgb(0,0,0); fill-opacity: 0; fill-rule: nonzero; opacity: 1;" vector-effect="non-scaling-stroke"  transform=" translate(-370.67, -79.52)" d="M 341.64 39.52 L 399.7 39.52 L 399.7 119.52 L 341.64 119.52 L 341.64 39.52 Z" stroke-linecap="round" />
</g>
<g transform="matrix(1 0 0 1 320.71 80.45)" id="OK8pjaEVvSa51UfivMoyH"  >
<path style="stroke: none; stroke-width: 1; stroke-dasharray: none; stroke-linecap: butt; stroke-dashoffset: 0; stroke-linejoin: miter; stroke-miterlimit: 4; fill: rgb(224,219,214); fill-rule: nonzero; opacity: 1;" vector-effect="non-scaling-stroke"  transform=" translate(-326.88, -79.52)" d="M 312.11 39.52 L 341.64 39.52 L 341.64 119.52 L 312.11 119.52 L 312.11 39.52 Z" stroke-linecap="round" />
</g>
<g transform="matrix(1 0 0 1 320.71 80.45)" id="umN7Y5MtnEra6ndPZAgdq"  >
<path style="stroke: rgb(0,0,0); stroke-width: 1; stroke-dasharray: none; stroke-linecap: butt; stroke-dashoffset: 0; stroke-linejoin: miter; stroke-miterlimit: 4; fill: rgb(0,0,0); fill-opacity: 0; fill-rule: nonzero; opacity: 1;" vector-effect="non-scaling-stroke"  transform=" translate(-326.88, -79.52)" d="M 312.11 39.52 L 341.64 39.52 L 341.64 119.52 L 312.11 119.52 L 312.11 39.52 Z" stroke-linecap="round" />
</g>
<g transform="matrix(1 0 0 1 350.23 80.45)" id="y6SsJW3daHmeJhdPMC7r0"  >
<path style="stroke: none; stroke-width: 1; stroke-dasharray: none; stroke-linecap: butt; stroke-dashoffset: 0; stroke-linejoin: miter; stroke-miterlimit: 4; fill: rgb(224,219,214); fill-rule: nonzero; opacity: 1;" vector-effect="non-scaling-stroke"  transform=" translate(-356.4, -79.52)" d="M 341.64 39.52 L 371.17 39.52 L 371.17 119.52 L 341.64 119.52 L 341.64 39.52 Z" stroke-linecap="round" />
</g>
<g transform="matrix(1 0 0 1 350.23 80.45)" id="Y63ahd3EIq4yDgUcyXr_8"  >
<path style="stroke: rgb(0,0,0); stroke-width: 1; stroke-dasharray: none; stroke-linecap: butt; stroke-dashoffset: 0; stroke-linejoin: miter; stroke-miterlimit: 4; fill: rgb(0,0,0); fill-opacity: 0; fill-rule: nonzero; opacity: 1;" vector-effect="non-scaling-stroke"  transform=" translate(-356.4, -79.52)" d="M 341.64 39.52 L 371.17 39.52 L 371.17 119.52 L 341.64 119.52 L 341.64 39.52 Z" stroke-linecap="round" />
</g>
<g transform="matrix(1 0 0 1 194.1 27.59)" style="" id="5rCW5z5nCtlEFtbCUBw8B"  >
		<text xml:space="preserve" font-family="Open Sans" font-size="14" font-style="normal" font-weight="normal" line-height="1.16" style="stroke: none; stroke-width: 1; stroke-dasharray: none; stroke-linecap: butt; stroke-dashoffset: 0; stroke-linejoin: miter; stroke-miterlimit: 4; fill: rgb(0,0,0); fill-rule: nonzero; opacity: 1; white-space: pre;" ><tspan x="-139.7" y="4.4" >Typical 365 day Year in Gregorian Calendar</tspan></text>
</g>
<g transform="matrix(1 0 0 1 103.07 135.81)" id="xD-CopEzlL3jukTETB8gz"  >
<path style="stroke: rgb(0,0,0); stroke-width: 1; stroke-dasharray: none; stroke-linecap: butt; stroke-dashoffset: 0; stroke-linejoin: miter; stroke-miterlimit: 4; fill: rgb(0,0,0); fill-opacity: 0; fill-rule: nonzero; opacity: 1;" vector-effect="non-scaling-stroke"  transform=" translate(-109.24, -134.88)" d="M 193.52 150.16 L 95.19 150.16 L 24.95 119.61" stroke-linecap="round" />
</g>
<g transform="matrix(1 0 0 1 284.56 135.81)" id="hj_t6rvrYhh2d5tp00pkb"  >
<path style="stroke: rgb(0,0,0); stroke-width: 1; stroke-dasharray: none; stroke-linecap: butt; stroke-dashoffset: 0; stroke-linejoin: miter; stroke-miterlimit: 4; fill: rgb(0,0,0); fill-opacity: 0; fill-rule: nonzero; opacity: 1;" vector-effect="non-scaling-stroke"  transform=" translate(-290.73, -134.88)" d="M 193.52 150.16 L 306.93 150.16 L 387.93 119.61" stroke-linecap="round" />
</g>
<g transform="matrix(1 0 0 1 199.18 167)" style="" id="hif9cUOOHzdYjgJu2oWlC"  >
		<text xml:space="preserve" font-family="Open Sans" font-size="14" font-style="normal" font-weight="normal" line-height="1.16" style="stroke: none; stroke-width: 1; stroke-dasharray: none; stroke-linecap: butt; stroke-dashoffset: 0; stroke-linejoin: miter; stroke-miterlimit: 4; fill: rgb(0,0,0); fill-rule: nonzero; opacity: 1; white-space: pre;" ><tspan x="-137.3" y="4.4" >12 Whole Lunar Months+ 1 Partial Months</tspan></text>
</g>
<g transform="matrix(1 0 0 1 -6.17 0.93)" id="6XKqHwOFz9yyTTCHT1kEv"  >
<path style="stroke: rgb(0,0,0); stroke-width: 1; stroke-dasharray: none; stroke-linecap: butt; stroke-dashoffset: 0; stroke-linejoin: miter; stroke-miterlimit: 4; fill: rgb(0,0,0); fill-opacity: 0; fill-rule: nonzero; opacity: 1;" vector-effect="non-scaling-stroke"  transform=" translate(0, 0)" d="" stroke-linecap="round" />
</g>
<g transform="matrix(1 0 0 1 369.32 80.45)" id="2ysxOkvdXgT25ewDGyoq8"  >
<path style="stroke: none; stroke-width: 1; stroke-dasharray: none; stroke-linecap: butt; stroke-dashoffset: 0; stroke-linejoin: miter; stroke-miterlimit: 4; fill: rgb(198,154,110); fill-rule: nonzero; opacity: 1;" vector-effect="non-scaling-stroke"  transform=" translate(-375.49, -79.52)" d="M 370.97 39.52 L 380 39.52 L 380 119.52 L 370.97 119.52 L 370.97 39.52 Z" stroke-linecap="round" />
</g>
<g transform="matrix(1 0 0 1 369.32 80.45)" id="Eevsx7fGyG0MuuuSSgMRi"  >
<path style="stroke: rgb(0,0,0); stroke-width: 1; stroke-dasharray: none; stroke-linecap: butt; stroke-dashoffset: 0; stroke-linejoin: miter; stroke-miterlimit: 4; fill: rgb(0,0,0); fill-opacity: 0; fill-rule: nonzero; opacity: 1;" vector-effect="non-scaling-stroke"  transform=" translate(-375.49, -79.52)" d="M 370.97 39.52 L 380 39.52 L 380 119.52 L 370.97 119.52 L 370.97 39.52 Z" stroke-linecap="round" />
</g>
<g transform="matrix(1 0 0 1 220.94 84.11)" style="" id="AcFXbCok74F9eOnrLQuMd"  >
		<text xml:space="preserve" font-family="Open Sans" font-size="14" font-style="normal" font-weight="normal" line-height="1.16" style="stroke: none; stroke-width: 1; stroke-dasharray: none; stroke-linecap: butt; stroke-dashoffset: 0; stroke-linejoin: miter; stroke-miterlimit: 4; fill: rgb(2,2,2); fill-rule: nonzero; opacity: 1; white-space: pre;" ><tspan x="-200" y="4.4" >0</tspan></text>
</g>
<g transform="matrix(1 0 0 1 251.17 84.11)" style="" id="unKaNxTVm0MAz039Y4WtO"  >
		<text xml:space="preserve" font-family="Open Sans" font-size="14" font-style="normal" font-weight="normal" line-height="1.16" style="stroke: none; stroke-width: 1; stroke-dasharray: none; stroke-linecap: butt; stroke-dashoffset: 0; stroke-linejoin: miter; stroke-miterlimit: 4; fill: rgb(2,2,2); fill-rule: nonzero; opacity: 1; white-space: pre;" ><tspan x="-200" y="4.4" >1</tspan></text>
</g>
<g transform="matrix(1 0 0 1 281.17 84.11)" style="" id="LGEceQ35dlY1vMAvUo7AJ"  >
		<text xml:space="preserve" font-family="Open Sans" font-size="14" font-style="normal" font-weight="normal" line-height="1.16" style="stroke: none; stroke-width: 1; stroke-dasharray: none; stroke-linecap: butt; stroke-dashoffset: 0; stroke-linejoin: miter; stroke-miterlimit: 4; fill: rgb(2,2,2); fill-rule: nonzero; opacity: 1; white-space: pre;" ><tspan x="-200" y="4.4" >2</tspan></text>
</g>
<g transform="matrix(1 0 0 1 309.67 84.11)" style="" id="nYK8QoGAvwaNFIhyEs23p"  >
		<text xml:space="preserve" font-family="Open Sans" font-size="14" font-style="normal" font-weight="normal" line-height="1.16" style="stroke: none; stroke-width: 1; stroke-dasharray: none; stroke-linecap: butt; stroke-dashoffset: 0; stroke-linejoin: miter; stroke-miterlimit: 4; fill: rgb(2,2,2); fill-rule: nonzero; opacity: 1; white-space: pre;" ><tspan x="-200" y="4.4" >3</tspan></text>
</g>
<g transform="matrix(1 0 0 1 338.17 84.11)" style="" id="1xxzUW524OozW8m6i1QIU"  >
		<text xml:space="preserve" font-family="Open Sans" font-size="14" font-style="normal" font-weight="normal" line-height="1.16" style="stroke: none; stroke-width: 1; stroke-dasharray: none; stroke-linecap: butt; stroke-dashoffset: 0; stroke-linejoin: miter; stroke-miterlimit: 4; fill: rgb(2,2,2); fill-rule: nonzero; opacity: 1; white-space: pre;" ><tspan x="-200" y="4.4" >4</tspan></text>
</g>
<g transform="matrix(1 0 0 1 371.17 84.11)" style="" id="9-TWBCfIlBUzVzZ0CQoug"  >
		<text xml:space="preserve" font-family="Open Sans" font-size="14" font-style="normal" font-weight="normal" line-height="1.16" style="stroke: none; stroke-width: 1; stroke-dasharray: none; stroke-linecap: butt; stroke-dashoffset: 0; stroke-linejoin: miter; stroke-miterlimit: 4; fill: rgb(2,2,2); fill-rule: nonzero; opacity: 1; white-space: pre;" ><tspan x="-200" y="4.4" >5</tspan></text>
</g>
<g transform="matrix(1 0 0 1 398.17 84.11)" style="" id="z45OSGfpvnYM9WpvGCDdm"  >
		<text xml:space="preserve" font-family="Open Sans" font-size="14" font-style="normal" font-weight="normal" line-height="1.16" style="stroke: none; stroke-width: 1; stroke-dasharray: none; stroke-linecap: butt; stroke-dashoffset: 0; stroke-linejoin: miter; stroke-miterlimit: 4; fill: rgb(2,2,2); fill-rule: nonzero; opacity: 1; white-space: pre;" ><tspan x="-200" y="4.4" >6</tspan></text>
</g>
<g transform="matrix(1 0 0 1 428.17 84.11)" style="" id="3zNfpT0IhZd0Dbd4bdqwq"  >
		<text xml:space="preserve" font-family="Open Sans" font-size="14" font-style="normal" font-weight="normal" line-height="1.16" style="stroke: none; stroke-width: 1; stroke-dasharray: none; stroke-linecap: butt; stroke-dashoffset: 0; stroke-linejoin: miter; stroke-miterlimit: 4; fill: rgb(2,2,2); fill-rule: nonzero; opacity: 1; white-space: pre;" ><tspan x="-200" y="4.4" >7</tspan></text>
</g>
<g transform="matrix(1 0 0 1 458.17 84.11)" style="" id="zemOo0TtRpE7viahpgr8w"  >
		<text xml:space="preserve" font-family="Open Sans" font-size="14" font-style="normal" font-weight="normal" line-height="1.16" style="stroke: none; stroke-width: 1; stroke-dasharray: none; stroke-linecap: butt; stroke-dashoffset: 0; stroke-linejoin: miter; stroke-miterlimit: 4; fill: rgb(2,2,2); fill-rule: nonzero; opacity: 1; white-space: pre;" ><tspan x="-200" y="4.4" >8</tspan></text>
</g>
<g transform="matrix(1 0 0 1 487.17 84.11)" style="" id="r3-BahxGGV5Md7TcI7BHv"  >
		<text xml:space="preserve" font-family="Open Sans" font-size="14" font-style="normal" font-weight="normal" line-height="1.16" style="stroke: none; stroke-width: 1; stroke-dasharray: none; stroke-linecap: butt; stroke-dashoffset: 0; stroke-linejoin: miter; stroke-miterlimit: 4; fill: rgb(2,2,2); fill-rule: nonzero; opacity: 1; white-space: pre;" ><tspan x="-200" y="4.4" >9</tspan></text>
</g>
<g transform="matrix(1 0 0 1 512.35 84.11)" style="" id="hoQgKTS7p4Qbz8mSCHr7b"  >
		<text xml:space="preserve" font-family="Open Sans" font-size="14" font-style="normal" font-weight="normal" line-height="1.16" style="stroke: none; stroke-width: 1; stroke-dasharray: none; stroke-linecap: butt; stroke-dashoffset: 0; stroke-linejoin: miter; stroke-miterlimit: 4; fill: rgb(2,2,2); fill-rule: nonzero; opacity: 1; white-space: pre;" ><tspan x="-200" y="4.4" >10</tspan></text>
</g>
<g transform="matrix(1 0 0 1 542.94 84.11)" style="" id="pt6mmmuLrrnbJg0_DjxLp"  >
		<text xml:space="preserve" font-family="Open Sans" font-size="14" font-style="normal" font-weight="normal" line-height="1.16" style="stroke: none; stroke-width: 1; stroke-dasharray: none; stroke-linecap: butt; stroke-dashoffset: 0; stroke-linejoin: miter; stroke-miterlimit: 4; fill: rgb(2,2,2); fill-rule: nonzero; opacity: 1; white-space: pre;" ><tspan x="-200" y="4.4" >11</tspan></text>
</g>
<g transform="matrix(1 0 0 1 560.33 28.78)" style="" id="Os_VCZ4DX0Wy-3WJ_U_KH"  >
		<text xml:space="preserve" font-family="Open Sans" font-size="14" font-style="normal" font-weight="normal" line-height="1.16" style="stroke: none; stroke-width: 1; stroke-dasharray: none; stroke-linecap: butt; stroke-dashoffset: 0; stroke-linejoin: miter; stroke-miterlimit: 4; fill: rgb(2,2,2); fill-rule: nonzero; opacity: 1; white-space: pre;" ><tspan x="-200" y="4.4" >12</tspan></text>
</g>
<g transform="matrix(1 0 0 1 368.83 63.42)" id="rABXYX_jpCV_n97Y7tuoW"  >
<path style="stroke: none; stroke-width: 1; stroke-dasharray: none; stroke-linecap: butt; stroke-dashoffset: 0; stroke-linejoin: miter; stroke-miterlimit: 4; fill: rgb(0,0,0); fill-rule: nonzero; opacity: 1;" vector-effect="non-scaling-stroke"  transform=" translate(-375, -62.48)" d="M 373.16 84.3 L 375 87.47 L 376.84 84.3 L 375.67 84.3 L 375.61 37.5 L 374.33 37.58 L 374.32 84.3 L 373.16 84.3 Z" stroke-linecap="round" />
</g>
</svg>